<svg width="112" height="112" viewBox="0 0 112 112" fill="none" xmlns="http://www.w3.org/2000/svg">
<g clip-path="url(#clip0_70_585)">
<rect x="105" y="14" width="7" height="7" fill="black"/>
<rect x="98" y="14" width="7" height="7" fill="black"/>
<rect x="98" y="7" width="7" height="7" fill="black"/>
<rect x="91" y="21" width="7" height="7" fill="black"/>
<rect x="84" y="28" width="7" height="7" fill="black"/>
<rect x="77" y="35" width="7" height="7" fill="black"/>
<rect x="91" width="7" height="7" fill="black"/>
<rect x="84" width="7" height="7" fill="black"/>
<rect x="77" width="7" height="7" fill="black"/>
<rect x="70" y="7" width="7" height="7" fill="black"/>
<rect x="63" y="14" width="7" height="7" fill="black"/>
<rect x="56" y="21" width="7" height="7" fill="black"/>
<rect x="49" y="28" width="7" height="7" fill="black"/>
<rect x="42" y="35" width="7" height="7" fill="black"/>
<rect x="35" y="42" width="7" height="7" fill="black"/>
<rect x="28" y="49" width="7" height="7" fill="black"/>
<rect x="21" y="56" width="7" height="7" fill="black"/>
<rect x="14" y="63" width="7" height="7" fill="black"/>
<rect x="7" y="70" width="7" height="7" fill="black"/>
<rect y="77" width="7" height="7" fill="black"/>
<rect y="84" width="7" height="7" fill="black"/>
<rect y="91" width="7" height="7" fill="black"/>
<rect x="7" y="98" width="7" height="7" fill="black"/>
<rect x="7" y="91" width="7" height="7" fill="#F4733A"/>
<rect x="7" y="84" width="7" height="7" fill="#F4733A"/>
<rect x="7" y="77" width="7" height="7" fill="#F4733A"/>
<rect x="14" y="77" width="7" height="7" fill="#F4733A"/>
<rect x="21" y="77" width="7" height="7" fill="#F4733A"/>
<rect x="14" y="98" width="7" height="7" fill="#F4733A"/>
<rect x="21" y="91" width="7" height="7" fill="#F4733A"/>
<rect x="28" y="84" width="7" height="7" fill="#F4733A"/>
<rect x="28" y="98" width="7" height="7" fill="#F4733A"/>
<rect x="42" y="84" width="7" height="7" fill="#F4733A"/>
<rect x="49" y="77" width="7" height="7" fill="#F4733A"/>
<rect x="56" y="70" width="7" height="7" fill="#F4733A"/>
<rect x="21" y="63" width="7" height="7" fill="#F4733A"/>
<rect x="28" y="56" width="7" height="7" fill="#F4733A"/>
<rect x="35" y="49" width="7" height="7" fill="#F4733A"/>
<rect x="77" y="7" width="7" height="7" fill="#F4733A"/>
<rect x="84" y="7" width="7" height="7" fill="#E3B053"/>
<rect x="77" y="14" width="7" height="7" fill="#E3B053"/>
<rect x="70" y="21" width="7" height="7" fill="#E3B053"/>
<rect x="91" y="14" width="7" height="7" fill="#E3B053"/>
<rect x="91" y="7" width="7" height="7" fill="#F5D676"/>
<rect x="84" y="14" width="7" height="7" fill="#F5D676"/>
<rect x="77" y="21" width="7" height="7" fill="#F5D676"/>
<rect x="70" y="28" width="7" height="7" fill="#F5D676"/>
<rect x="42" y="56" width="7" height="7" fill="#F5D676"/>
<rect x="35" y="63" width="7" height="7" fill="#F5D676"/>
<rect x="28" y="70" width="7" height="7" fill="#F5D676"/>
<rect x="84" y="21" width="7" height="7" fill="#E3B053"/>
<rect x="77" y="28" width="7" height="7" fill="#E3B053"/>
<rect x="98" y="21" width="7" height="7" fill="#E3B053"/>
<rect x="91" y="28" width="7" height="7" fill="#E3B053"/>
<rect x="84" y="35" width="7" height="7" fill="#E3B053"/>
<rect x="42" y="77" width="7" height="7" fill="#E3B053"/>
<rect x="35" y="70" width="7" height="7" fill="#E3B053"/>
<rect x="28" y="63" width="7" height="7" fill="#E3B053"/>
<rect x="35" y="56" width="7" height="7" fill="#E3B053"/>
<rect x="42" y="49" width="7" height="7" fill="#E3B053"/>
<rect x="42" y="42" width="7" height="7" fill="#CA3557"/>
<rect x="49" y="49" width="7" height="7" fill="#CA3557"/>
<rect x="56" y="56" width="7" height="7" fill="#CA3557"/>
<rect x="63" y="63" width="7" height="7" fill="#CA3557"/>
<rect x="70" y="63" width="7" height="7" fill="#CA3557"/>
<rect x="70" y="56" width="7" height="7" fill="#CA3557"/>
<rect x="77" y="56" width="7" height="7" fill="#CA3557"/>
<rect x="77" y="49" width="7" height="7" fill="#CA3557"/>
<rect x="77" y="42" width="7" height="7" fill="#CA3557"/>
<rect x="70" y="35" width="7" height="7" fill="#CA3557"/>
<rect x="63" y="28" width="7" height="7" fill="#CA3557"/>
<rect x="56" y="28" width="7" height="7" fill="#CA3557"/>
<rect x="49" y="35" width="7" height="7" fill="#ED5D5F"/>
<rect x="56" y="35" width="7" height="7" fill="#ED5D5F"/>
<rect x="63" y="35" width="7" height="7" fill="#ED5D5F"/>
<rect x="49" y="42" width="7" height="7" fill="#ED5D5F"/>
<rect x="56" y="42" width="7" height="7" fill="#ED5D5F"/>
<rect x="63" y="42" width="7" height="7" fill="#ED5D5F"/>
<rect x="70" y="42" width="7" height="7" fill="#ED5D5F"/>
<rect x="70" y="49" width="7" height="7" fill="#ED5D5F"/>
<rect x="63" y="49" width="7" height="7" fill="#ED5D5F"/>
<rect x="63" y="56" width="7" height="7" fill="#ED5D5F"/>
<rect x="56" y="49" width="7" height="7" fill="#ED5D5F"/>
<rect x="42" y="63" width="7" height="7" fill="#E3B053"/>
<rect x="49" y="56" width="7" height="7" fill="#E3B053"/>
<rect x="49" y="70" width="7" height="7" fill="#E3B053"/>
<rect x="56" y="63" width="7" height="7" fill="#E3B053"/>
<rect x="70" y="14" width="7" height="7" fill="#F4733A"/>
<rect x="63" y="21" width="7" height="7" fill="#F4733A"/>
<rect x="98" y="28" width="7" height="7" fill="#F4733A"/>
<rect x="91" y="35" width="7" height="7" fill="#F4733A"/>
<rect x="84" y="42" width="7" height="7" fill="#F4733A"/>
<rect x="14" y="105" width="7" height="7" fill="black"/>
<rect x="21" y="105" width="7" height="7" fill="black"/>
<rect x="28" y="105" width="7" height="7" fill="black"/>
<rect x="21" y="98" width="7" height="7" fill="black"/>
<rect x="14" y="91" width="7" height="7" fill="black"/>
<rect x="14" y="84" width="7" height="7" fill="black"/>
<rect x="21" y="84" width="7" height="7" fill="black"/>
<rect x="28" y="77" width="7" height="7" fill="black"/>
<rect x="35" y="77" width="7" height="7" fill="black"/>
<rect x="42" y="70" width="7" height="7" fill="black"/>
<rect x="49" y="63" width="7" height="7" fill="black"/>
<rect x="35" y="84" width="7" height="7" fill="black"/>
<rect x="35" y="91" width="7" height="7" fill="black"/>
<rect x="28" y="91" width="7" height="7" fill="black"/>
<rect x="42" y="91" width="7" height="7" fill="black"/>
<rect x="35" y="98" width="7" height="7" fill="black"/>
<rect x="49" y="84" width="7" height="7" fill="black"/>
<rect x="56" y="77" width="7" height="7" fill="black"/>
<rect x="63" y="70" width="7" height="7" fill="black"/>
<rect x="14" y="70" width="7" height="7" fill="black"/>
<rect x="21" y="70" width="7" height="7" fill="black"/>
<rect x="105" y="21" width="7" height="7" fill="black"/>
<rect x="105" y="28" width="7" height="7" fill="black"/>
<rect x="98" y="35" width="7" height="7" fill="black"/>
<rect x="91" y="42" width="7" height="7" fill="black"/>
<rect x="84" y="49" width="7" height="7" fill="black"/>
</g>
<defs>
<clipPath id="clip0_70_585">
<rect width="112" height="112" fill="white"/>
</clipPath>
</defs>
</svg>
