<svg width="161" height="119" viewBox="0 0 161 119" fill="none" xmlns="http://www.w3.org/2000/svg">
<rect x="70" width="7" height="7" fill="#1E1729"/>
<rect x="70" y="70" width="7" height="7" fill="#1E1729"/>
<rect x="56" y="7" width="7" height="7" fill="#1E1729"/>
<rect x="42" y="14" width="7" height="7" fill="#1E1729"/>
<rect x="28" y="21" width="7" height="7" fill="#1E1729"/>
<rect x="14" y="28" width="7" height="7" fill="#1E1729"/>
<rect x="14" y="42" width="7" height="7" fill="#1E1729"/>
<rect x="28" y="49" width="7" height="7" fill="#1E1729"/>
<rect x="28" y="56" width="7" height="7" fill="#1E1729"/>
<rect x="112" y="56" width="7" height="7" fill="#1E1729"/>
<rect x="112" y="63" width="7" height="7" fill="#1E1729"/>
<rect x="112" y="70" width="7" height="7" fill="#1E1729"/>
<rect x="147" y="70" width="7" height="7" fill="#1E1729"/>
<rect x="112" y="77" width="7" height="7" fill="#1E1729"/>
<rect x="147" y="77" width="7" height="7" fill="#C73C5C"/>
<rect x="140" y="84" width="7" height="7" fill="#C73C5C"/>
<rect x="140" y="91" width="7" height="7" fill="#C73C5C"/>
<rect x="140" y="98" width="7" height="7" fill="#C73C5C"/>
<rect x="147" y="84" width="7" height="7" fill="#C73C5C"/>
<rect x="154" y="84" width="7" height="7" fill="#C73C5C"/>
<rect x="154" y="91" width="7" height="7" fill="#C73C5C"/>
<rect x="154" y="98" width="7" height="7" fill="#C73C5C"/>
<rect x="147" y="98" width="7" height="7" fill="#FFAC37"/>
<rect x="147" y="91" width="7" height="7" fill="#FFAC37"/>
<rect x="28" y="63" width="7" height="7" fill="#1E1729"/>
<rect x="28" y="70" width="7" height="7" fill="#1E1729"/>
<rect x="28" y="77" width="7" height="7" fill="#1E1729"/>
<rect x="28" y="84" width="7" height="7" fill="#1E1729"/>
<rect x="112" y="84" width="7" height="7" fill="#1E1729"/>
<rect x="28" y="91" width="7" height="7" fill="#1E1729"/>
<rect x="42" y="98" width="7" height="7" fill="#1E1729"/>
<rect x="56" y="105" width="7" height="7" fill="#1E1729"/>
<rect x="70" y="105" width="7" height="7" fill="#1E1729"/>
<rect x="91" y="98" width="7" height="7" fill="#1E1729"/>
<rect x="84" y="105" width="7" height="7" fill="#1E1729"/>
<rect x="105" y="91" width="7" height="7" fill="#1E1729"/>
<rect x="35" y="91" width="7" height="7" fill="#1E1729"/>
<rect x="49" y="98" width="7" height="7" fill="#1E1729"/>
<rect x="63" y="105" width="7" height="7" fill="#1E1729"/>
<rect x="77" y="105" width="7" height="7" fill="#1E1729"/>
<rect x="98" y="98" width="7" height="7" fill="#1E1729"/>
<rect x="112" y="91" width="7" height="7" fill="#1E1729"/>
<rect x="42" y="56" width="7" height="7" fill="#1E1729"/>
<rect x="56" y="63" width="7" height="7" fill="#1E1729"/>
<rect x="91" y="63" width="7" height="7" fill="#1E1729"/>
<rect x="105" y="56" width="7" height="7" fill="#1E1729"/>
<rect x="119" y="49" width="7" height="7" fill="#1E1729"/>
<rect x="98" y="42" width="7" height="7" fill="#1E1729"/>
<rect x="77" y="35" width="7" height="7" fill="#1E1729"/>
<rect x="140" y="56" width="7" height="7" fill="#1E1729"/>
<rect x="147" y="63" width="7" height="7" fill="#1E1729"/>
<rect x="126" y="49" width="7" height="7" fill="#1E1729"/>
<rect x="105" y="42" width="7" height="7" fill="#413D63"/>
<rect x="133" y="42" width="7" height="7" fill="#1E1729"/>
<rect x="63" width="7" height="7" fill="#1E1729"/>
<rect x="63" y="70" width="7" height="7" fill="#1E1729"/>
<rect x="49" y="7" width="7" height="7" fill="#1E1729"/>
<rect x="35" y="14" width="7" height="7" fill="#1E1729"/>
<rect x="21" y="21" width="7" height="7" fill="#1E1729"/>
<rect x="7" y="28" width="7" height="7" fill="#1E1729"/>
<rect x="7" y="35" width="7" height="7" fill="#413D63"/>
<rect x="21" y="28" width="7" height="7" fill="#413D63"/>
<rect x="35" y="21" width="7" height="7" fill="#413D63"/>
<rect x="49" y="14" width="7" height="7" fill="#413D63"/>
<rect x="63" y="7" width="7" height="7" fill="#413D63"/>
<rect x="84" y="14" width="7" height="7" fill="#413D63"/>
<rect x="98" y="21" width="7" height="7" fill="#413D63"/>
<rect x="112" y="28" width="7" height="7" fill="#413D63"/>
<rect x="126" y="35" width="7" height="7" fill="#413D63"/>
<rect x="112" y="42" width="7" height="7" fill="#413D63"/>
<rect x="105" y="49" width="7" height="7" fill="#413D63"/>
<rect x="84" y="56" width="7" height="7" fill="#413D63"/>
<rect x="70" y="63" width="7" height="7" fill="#413D63"/>
<rect x="63" y="63" width="7" height="7" fill="#413D63"/>
<rect x="49" y="56" width="7" height="7" fill="#413D63"/>
<rect x="35" y="49" width="7" height="7" fill="#413D63"/>
<rect x="21" y="42" width="7" height="7" fill="#413D63"/>
<rect x="14" y="35" width="7" height="7" fill="#413D63"/>
<rect x="28" y="28" width="7" height="7" fill="#413D63"/>
<rect x="42" y="21" width="7" height="7" fill="#413D63"/>
<rect x="56" y="14" width="7" height="7" fill="#413D63"/>
<rect x="70" y="7" width="7" height="7" fill="#413D63"/>
<rect x="91" y="14" width="7" height="7" fill="#413D63"/>
<rect x="105" y="21" width="7" height="7" fill="#413D63"/>
<rect x="119" y="28" width="7" height="7" fill="#413D63"/>
<rect x="133" y="35" width="7" height="7" fill="#413D63"/>
<rect x="119" y="42" width="7" height="7" fill="#413D63"/>
<rect x="91" y="56" width="7" height="7" fill="#413D63"/>
<rect x="77" y="63" width="7" height="7" fill="#413D63"/>
<rect x="56" y="56" width="7" height="7" fill="#413D63"/>
<rect x="42" y="49" width="7" height="7" fill="#413D63"/>
<rect x="35" y="63" width="7" height="7" fill="#413D63"/>
<rect x="84" y="70" width="7" height="7" fill="#413D63"/>
<rect x="91" y="70" width="7" height="7" fill="#413D63"/>
<rect x="105" y="63" width="7" height="7" fill="#413D63"/>
<rect x="98" y="63" width="7" height="7" fill="#413D63"/>
<rect x="35" y="70" width="7" height="7" fill="#413D63"/>
<rect x="42" y="70" width="7" height="7" fill="#5C6185"/>
<rect x="42" y="77" width="7" height="7" fill="#5C6185"/>
<rect x="49" y="77" width="7" height="7" fill="#5C6185"/>
<rect x="63" y="84" width="7" height="7" fill="#5C6185"/>
<rect x="70" y="49" width="7" height="7" fill="#5C6185"/>
<rect x="70" y="42" width="7" height="7" fill="#5C6185"/>
<rect x="56" y="35" width="7" height="7" fill="#5C6185"/>
<rect x="84" y="21" width="7" height="7" fill="#5C6185"/>
<rect x="70" y="56" width="7" height="7" fill="#5C6185"/>
<rect x="91" y="49" width="7" height="7" fill="#5C6185"/>
<rect x="56" y="42" width="7" height="7" fill="#5C6185"/>
<rect x="42" y="35" width="7" height="7" fill="#5C6185"/>
<rect x="56" y="28" width="7" height="7" fill="#5C6185"/>
<rect x="70" y="21" width="7" height="7" fill="#5C6185"/>
<rect x="70" y="14" width="7" height="7" fill="#5C6185"/>
<rect x="91" y="28" width="7" height="7" fill="#5C6185"/>
<rect x="105" y="35" width="7" height="7" fill="#5C6185"/>
<rect x="70" y="84" width="7" height="7" fill="#5C6185"/>
<rect x="77" y="49" width="7" height="7" fill="#5C6185"/>
<rect x="77" y="42" width="7" height="7" fill="#5C6185"/>
<rect x="63" y="35" width="7" height="7" fill="#5C6185"/>
<rect x="91" y="21" width="7" height="7" fill="#5C6185"/>
<rect x="77" y="56" width="7" height="7" fill="#5C6185"/>
<rect x="98" y="49" width="7" height="7" fill="#5C6185"/>
<rect x="63" y="42" width="7" height="7" fill="#5C6185"/>
<rect x="49" y="35" width="7" height="7" fill="#5C6185"/>
<rect x="63" y="28" width="7" height="7" fill="#5C6185"/>
<rect x="77" y="21" width="7" height="7" fill="#5C6185"/>
<rect x="77" y="14" width="7" height="7" fill="#5C6185"/>
<rect x="77" y="7" width="7" height="7" fill="#5C6185"/>
<rect x="98" y="28" width="7" height="7" fill="#5C6185"/>
<rect x="105" y="28" width="7" height="7" fill="#5C6185"/>
<rect x="112" y="35" width="7" height="7" fill="#5C6185"/>
<rect x="119" y="35" width="7" height="7" fill="#5C6185"/>
<rect x="56" y="77" width="7" height="7" fill="#5C6185"/>
<rect x="42" y="84" width="7" height="7" fill="#5C6185"/>
<rect x="49" y="49" width="7" height="7" fill="#5C6185"/>
<rect x="35" y="42" width="7" height="7" fill="#5C6185"/>
<rect x="21" y="35" width="7" height="7" fill="#5C6185"/>
<rect x="35" y="28" width="7" height="7" fill="#5C6185"/>
<rect x="49" y="21" width="7" height="7" fill="#5C6185"/>
<rect x="70" y="28" width="7" height="7" fill="#5C6185"/>
<rect x="84" y="35" width="7" height="7" fill="#5C6185"/>
<rect x="49" y="84" width="7" height="7" fill="#5C6185"/>
<rect x="56" y="49" width="7" height="7" fill="#5C6185"/>
<rect x="42" y="42" width="7" height="7" fill="#5C6185"/>
<rect x="28" y="35" width="7" height="7" fill="#5C6185"/>
<rect x="42" y="28" width="7" height="7" fill="#5C6185"/>
<rect x="56" y="21" width="7" height="7" fill="#5C6185"/>
<rect x="77" y="28" width="7" height="7" fill="#5C6185"/>
<rect x="91" y="35" width="7" height="7" fill="#5C6185"/>
<rect x="63" y="91" width="7" height="7" fill="#5C6185"/>
<rect x="70" y="91" width="7" height="7" fill="#5C6185"/>
<rect x="56" y="84" width="7" height="7" fill="#5C6185"/>
<rect x="63" y="49" width="7" height="7" fill="#5C6185"/>
<rect x="63" y="56" width="7" height="7" fill="#5C6185"/>
<rect x="84" y="49" width="7" height="7" fill="#5C6185"/>
<rect x="49" y="42" width="7" height="7" fill="#5C6185"/>
<rect x="35" y="35" width="7" height="7" fill="#5C6185"/>
<rect x="49" y="28" width="7" height="7" fill="#5C6185"/>
<rect x="63" y="21" width="7" height="7" fill="#5C6185"/>
<rect x="63" y="14" width="7" height="7" fill="#5C6185"/>
<rect x="84" y="28" width="7" height="7" fill="#5C6185"/>
<rect x="98" y="35" width="7" height="7" fill="#5C6185"/>
<rect x="56" y="91" width="7" height="7" fill="#5C6185"/>
<rect x="84" y="77" width="7" height="7" fill="#413D63"/>
<rect x="91" y="77" width="7" height="7" fill="#413D63"/>
<rect x="105" y="70" width="7" height="7" fill="#413D63"/>
<rect x="98" y="70" width="7" height="7" fill="#413D63"/>
<rect x="35" y="77" width="7" height="7" fill="#413D63"/>
<rect x="84" y="84" width="7" height="7" fill="#413D63"/>
<rect x="91" y="84" width="7" height="7" fill="#413D63"/>
<rect x="105" y="77" width="7" height="7" fill="#413D63"/>
<rect x="98" y="77" width="7" height="7" fill="#413D63"/>
<rect x="35" y="84" width="7" height="7" fill="#413D63"/>
<rect x="84" y="91" width="7" height="7" fill="#413D63"/>
<rect x="91" y="91" width="7" height="7" fill="#413D63"/>
<rect x="105" y="84" width="7" height="7" fill="#413D63"/>
<rect x="98" y="84" width="7" height="7" fill="#413D63"/>
<rect x="98" y="91" width="7" height="7" fill="#413D63"/>
<rect x="42" y="91" width="7" height="7" fill="#413D63"/>
<rect x="49" y="91" width="7" height="7" fill="#413D63"/>
<rect x="56" y="98" width="7" height="7" fill="#413D63"/>
<rect x="63" y="98" width="7" height="7" fill="#413D63"/>
<rect x="70" y="98" width="7" height="7" fill="#413D63"/>
<rect x="77" y="98" width="7" height="7" fill="#413D63"/>
<rect x="84" y="98" width="7" height="7" fill="#413D63"/>
<rect x="77" y="91" width="7" height="7" fill="#413D63"/>
<rect x="77" y="84" width="7" height="7" fill="#413D63"/>
<rect x="77" y="77" width="7" height="7" fill="#413D63"/>
<rect x="70" y="77" width="7" height="7" fill="#413D63"/>
<rect x="63" y="77" width="7" height="7" fill="#413D63"/>
<rect x="56" y="70" width="7" height="7" fill="#413D63"/>
<rect x="49" y="70" width="7" height="7" fill="#413D63"/>
<rect x="42" y="63" width="7" height="7" fill="#413D63"/>
<rect x="28" y="42" width="7" height="7" fill="#413D63"/>
<rect x="7" y="42" width="7" height="7" fill="#1E1729"/>
<rect x="21" y="49" width="7" height="7" fill="#1E1729"/>
<rect x="35" y="56" width="7" height="7" fill="#1E1729"/>
<rect x="49" y="63" width="7" height="7" fill="#1E1729"/>
<rect x="84" y="63" width="7" height="7" fill="#1E1729"/>
<rect x="98" y="56" width="7" height="7" fill="#1E1729"/>
<rect x="112" y="49" width="7" height="7" fill="#1E1729"/>
<rect x="112" y="49" width="7" height="7" fill="#1E1729"/>
<rect x="91" y="42" width="7" height="7" fill="#1E1729"/>
<rect x="84" y="42" width="7" height="7" fill="#1E1729"/>
<rect x="70" y="35" width="7" height="7" fill="#1E1729"/>
<rect x="133" y="56" width="7" height="7" fill="#1E1729"/>
<rect x="126" y="42" width="7" height="7" fill="#1E1729"/>
<rect y="35" width="7" height="7" fill="#1E1729"/>
<rect x="84" y="7" width="7" height="7" fill="#1E1729"/>
<rect x="98" y="14" width="7" height="7" fill="#1E1729"/>
<rect x="112" y="21" width="7" height="7" fill="#1E1729"/>
<rect x="126" y="28" width="7" height="7" fill="#1E1729"/>
<rect x="77" width="7" height="7" fill="#1E1729"/>
<rect x="77" y="70" width="7" height="7" fill="#1E1729"/>
<rect x="91" y="7" width="7" height="7" fill="#1E1729"/>
<rect x="105" y="14" width="7" height="7" fill="#1E1729"/>
<rect x="119" y="21" width="7" height="7" fill="#1E1729"/>
<rect x="133" y="28" width="7" height="7" fill="#1E1729"/>
<rect x="140" y="35" width="7" height="7" fill="#1E1729"/>
</svg>
