<svg width="130" height="130" viewBox="0 0 130 130" fill="none" xmlns="http://www.w3.org/2000/svg">
<g clip-path="url(#clip0_53_147)">
<rect y="60" width="10" height="10" fill="#FFAC37"/>
<rect x="40" y="60" width="10" height="10" fill="#FFFB00"/>
<rect x="40" y="70" width="10" height="10" fill="#FFFB00"/>
<rect x="90" y="70" width="10" height="10" fill="#FFAC37"/>
<rect x="40" y="50" width="10" height="10" fill="#FFFB00"/>
<rect x="40" y="40" width="10" height="10" fill="#FFAC37"/>
<rect x="40" y="80" width="10" height="10" fill="#FFAC37"/>
<rect x="70" y="80" width="10" height="10" fill="#FFFB00"/>
<rect x="70" y="40" width="10" height="10" fill="#FFFB00"/>
<rect x="90" y="50" width="10" height="10" fill="#FFAC37"/>
<rect x="80" y="60" width="10" height="10" fill="#FFFB00"/>
<rect x="10" y="60" width="10" height="10" fill="#FFAC37"/>
<rect x="50" y="60" width="10" height="10" fill="#FFAC37"/>
<rect x="50" y="70" width="10" height="10" fill="#FFFB00"/>
<rect x="10" y="110" width="10" height="10" fill="#FFFB00"/>
<rect x="100" y="70" width="10" height="10" fill="#FFAC37"/>
<rect x="50" y="50" width="10" height="10" fill="#FFFB00"/>
<rect x="50" y="40" width="10" height="10" fill="#FFFB00"/>
<rect x="50" y="80" width="10" height="10" fill="#FFFB00"/>
<rect x="80" y="80" width="10" height="10" fill="#FFAC37"/>
<rect x="50" y="30" width="10" height="10" fill="#FFAC37"/>
<rect x="50" y="100" width="10" height="10" fill="#FFAC37"/>
<rect x="70" y="100" width="10" height="10" fill="#FFAC37"/>
<rect x="70" y="30" width="10" height="10" fill="#FFAC37"/>
<rect x="70" y="20" width="10" height="10" fill="#FFAC37"/>
<rect x="80" y="40" width="10" height="10" fill="#FFAC37"/>
<rect x="100" y="50" width="10" height="10" fill="#FFAC37"/>
<rect x="90" y="60" width="10" height="10" fill="#FFFB00"/>
<rect x="20" y="60" width="10" height="10" fill="#FFAC37"/>
<rect x="20" y="70" width="10" height="10" fill="#FFAC37"/>
<rect x="10" y="100" width="10" height="10" fill="#FFAC37"/>
<rect x="20" y="110" width="10" height="10" fill="#FFAC37"/>
<rect x="10" y="120" width="10" height="10" fill="#FFAC37"/>
<rect y="110" width="10" height="10" fill="#FFAC37"/>
<rect x="70" y="70" width="10" height="10" fill="#FFFB00"/>
<rect x="20" y="50" width="10" height="10" fill="#FFAC37"/>
<rect x="70" y="50" width="10" height="10" fill="#FFFB00"/>
<rect x="60" y="60" width="10" height="10" fill="#FFAC37"/>
<rect x="60" y="50" width="10" height="10" fill="#FFAC37"/>
<rect x="60" y="20" width="10" height="10" fill="#FFAC37"/>
<rect x="50" y="20" width="10" height="10" fill="#FFAC37"/>
<rect x="50" y="90" width="10" height="10" fill="#FFAC37"/>
<rect x="70" y="90" width="10" height="10" fill="#FFAC37"/>
<rect x="60" y="90" width="10" height="10" fill="#FFFB00"/>
<rect x="60" y="120" width="10" height="10" fill="#FFAC37"/>
<rect x="60" y="40" width="10" height="10" fill="#FFFB00"/>
<rect x="60" y="10" width="10" height="10" fill="#FFAC37"/>
<rect x="60" y="80" width="10" height="10" fill="#FFFB00"/>
<rect x="60" y="110" width="10" height="10" fill="#FFAC37"/>
<rect x="60" y="30" width="10" height="10" fill="#FFFB00"/>
<rect x="60" width="10" height="10" fill="#FFAC37"/>
<rect x="60" y="70" width="10" height="10" fill="#FFAC37"/>
<rect x="60" y="100" width="10" height="10" fill="#FFAC37"/>
<rect x="100" y="60" width="10" height="10" fill="#FFAC37"/>
<rect x="30" y="60" width="10" height="10" fill="#FFFB00"/>
<rect x="30" y="70" width="10" height="10" fill="#FFAC37"/>
<rect x="80" y="70" width="10" height="10" fill="#FFFB00"/>
<rect x="30" y="50" width="10" height="10" fill="#FFAC37"/>
<rect x="80" y="50" width="10" height="10" fill="#FFFB00"/>
<rect x="70" y="60" width="10" height="10" fill="#FFAC37"/>
<rect x="110" y="60" width="10" height="10" fill="#FFAC37"/>
<rect x="120" y="60" width="10" height="10" fill="#FFAC37"/>
</g>
<defs>
<clipPath id="clip0_53_147">
<rect width="130" height="130" fill="white"/>
</clipPath>
</defs>
</svg>
